# xmcd
#
# Track frame offsets:
# 150
# 10735
# 24050
# 36870
# 54700
# 75700
# 96600
# 110335
# 123335
# 139423
#
# Disc length: 2032 seconds
#
#
# Revision: 3
# Processed by: cddbd v1.5.1PL0 Copyright (c) Steve Scherf et al.
# Submitted via: FreeRIP 2.70 
#
DISCID=7e07ee0a
DTITLE=Frank Sinatra - My Way
DYEAR=1900
DGENRE=
TTITLE0=Watch What Happens
TTITLE1=Didn't We
TTITLE2=Hallelujah, I Love Her So
TTITLE3=Yesterday
TTITLE4=All My Tomorrows
TTITLE5=My Way
TTITLE6=A Day in the Life of a Fool
TTITLE7=For Once In My Life
TTITLE8=If You Go Away
TTITLE9=Mrs. Robinson
EXTD=
EXTT0=
EXTT1=
EXTT2=
EXTT3=
EXTT4=
EXTT5=
EXTT6=
EXTT7=
EXTT8=
EXTT9=
PLAYORDER=
